# xmcd
#
# Track frame offsets: 
#        150
#        22585
#        46070
#        66137
#        87105
#        108340
#        130970
#        151167
#        172120
#        197680
#
# Disc length: 2795 seconds
#
# Revision: 3
# Processed by: cddbd v1.5.2PL0 Copyright (c) Steve Scherf et al.
# Submitted via: ExactAudioCopy v1.0b3
#
DISCID=730ae90a
DTITLE=Trung Hanh, Lam Thuy Van - Con Mua Ha
DYEAR=1993
DGENRE=
TTITLE0=Lam Thuy Van - Con mua ha
TTITLE1=Trung Hanh - Yeu em
TTITLE2=Lam Thuy Van - Mua chieu (Lo mot cuoc tinh 4)
TTITLE3=Trung Hanh - Say you'll be mine
TTITLE4=Lam Thuy Van - Tinh khuc chieu mua
TTITLE5=Trung Hanh - Summer rain
TTITLE6=Cuoc tinh thoang bay
TTITLE7=Trung Hanh - Tinh yeu da den
TTITLE8=Thuong nhau ngay mua
TTITLE9=instrumental - Con mua ha
EXTD=
EXTT0=
EXTT1=
EXTT2=
EXTT3=
EXTT4=
EXTT5=
EXTT6=
EXTT7=
EXTT8=
EXTT9=
PLAYORDER=
